<svg height="64" width="64" xmlns="http://www.w3.org/2000/svg"><circle cx="32" cy="32" fill="#C75C5C" r="32"/><path d="M44 38c-6.188 0-8.187-2.868-8.187-2.868L16 14c0 19.062 19.525 24.06 19.525 30.259 0 1.896.476 3.467 1.035 4.667C37.729 51.895 40.616 54 44 54a8 8 0 000-16zm0 12c-2.206 0-4-1.794-4-4s1.794-4 4-4 4 1.794 4 4-1.794 4-4 4z" fill="#231F20" opacity=".2"/><path d="M44 36c-6.188 0-8.187-2.868-8.187-2.868L16 12c0 19.062 19.525 24.06 19.525 30.259 0 1.896.476 3.467 1.035 4.667C37.729 49.895 40.616 52 44 52a8 8 0 000-16zm0 12c-2.206 0-4-1.794-4-4s1.794-4 4-4 4 1.794 4 4-1.794 4-4 4z" fill="#E0E0D1"/><path d="M28.187 35.132S26.188 38 20 38a8 8 0 000 16c3.384 0 6.271-2.105 7.44-5.074a10.99 10.99 0 001.035-4.667C28.475 38.06 48 33.062 48 14L28.187 35.132zM20 50c-2.206 0-4-1.794-4-4s1.794-4 4-4 4 1.794 4 4-1.794 4-4 4z" fill="#231F20" opacity=".2"/><path d="M28.187 33.132S26.188 36 20 36a8 8 0 000 16c3.384 0 6.271-2.105 7.44-5.074a10.99 10.99 0 001.035-4.667C28.475 36.06 48 31.062 48 12L28.187 33.132zM20 48c-2.206 0-4-1.794-4-4s1.794-4 4-4 4 1.794 4 4-1.794 4-4 4z" fill="#E0E0D1"/><circle cx="32" cy="33" fill="#4F5D73" r="1.5"/></svg>