<svg height="512" viewBox="0 0 58 58" width="512" xmlns="http://www.w3.org/2000/svg"><g fill="none"><path d="M15 0a2 2 0 012 2v36h-4V2a2 2 0 012-2z" fill="#603e26"/><path d="M12 36h6a2 2 0 012 2v3H10v-3a2 2 0 012-2z" fill="#805333"/><path d="M28 44l-8-4H10l-8 4 13 1z" fill="#a56a43"/><path d="M27 48v9a1 1 0 01-1 1H4a1 1 0 01-1-1v-9l12-1z" fill="#f9eab0"/><path d="M8 52v6H6v-6a1 1 0 012 0zm4 0v6h-2v-6a1 1 0 012 0zm4 0v6h-2v-6a1 1 0 012 0zm4 0v6h-2v-6a1 1 0 012 0zm4 0v6h-2v-6a1 1 0 012 0z" fill="#fac176"/><path d="M50 24.64v7.86a5 5 0 002 4l4 3a5 5 0 012 4V56a2.006 2.006 0 01-2 2H38a2.006 2.006 0 01-2-2V43.5a5 5 0 012-4l4-3a5 5 0 002-4v-7.86z" fill="#3f5c6c"/><rect fill="#547580" height="12" rx="4" width="8" x="43" y="14"/><circle cx="47" cy="18" fill="#3f5c6c" r="1"/><rect fill="#cb8252" height="4" rx="2" width="30" y="44"/><path d="M58 43.5V53H36v-9.5a5 5 0 012-4l4-3c.203-.148.39-.315.56-.5h8.88c.17.185.357.352.56.5l4 3a5 5 0 012 4z" fill="#35495e"/></g></svg>