<svg height="512" viewBox="0 0 58 58" width="512" xmlns="http://www.w3.org/2000/svg"><g fill="none"><rect fill="#ecf0f1" height="46" rx="4" width="58"/><path d="M58 4v4H0V4a4 4 0 014-4h50a4 4 0 014 4z" fill="#3b97d3"/><path d="M32 3h-6a1 1 0 000 2h6a1 1 0 000-2zm22 0H43a1 1 0 000 2h11a1 1 0 000-2z" fill="#2980ba"/><circle cx="4" cy="4" fill="#ff5364" r="1"/><circle cx="8" cy="4" fill="#f0c419" r="1"/><circle cx="12" cy="4" fill="#65ddb9" r="1"/><path d="M6 14H4a1 1 0 010-2h2a1 1 0 010 2zm13 0h-9a1 1 0 010-2h9a1 1 0 010 2zm-7 4H4a1 1 0 010-2h8a1 1 0 010 2zm42-4h-2a1 1 0 010-2h2a1 1 0 010 2zm-6 0h-9a1 1 0 010-2h9a1 1 0 010 2zm6 4h-8a1 1 0 010-2h8a1 1 0 010 2z" fill="#35495e"/><path d="M41 36h-4V22.75A1.7 1.7 0 0035.363 21H22.637A1.7 1.7 0 0021 22.75V36h-4V22.75A5.7 5.7 0 0122.637 17h12.726A5.7 5.7 0 0141 22.75z" fill="#95a5a5"/><rect fill="#f0c419" height="24" rx="4" width="34" x="12" y="34"/><circle cx="29" cy="46" fill="#f29c1f" r="8"/><path d="M29 51a1 1 0 01-1-1v-2a1 1 0 011-1v-2a1 1 0 01-1-1v-2a1 1 0 012 0v1a1 1 0 011 1v4a1 1 0 01-1 1v1a1 1 0 01-1 1z" fill="#d25627"/><path d="M16 41a1 1 0 01-1-1v-1a1 1 0 012 0v1a1 1 0 01-1 1zm0 13a1 1 0 01-1-1v-9a1 1 0 012 0v9a1 1 0 01-1 1z" fill="#f3d55b"/></g></svg>