<svg height="512" viewBox="0 0 60 58" width="512" xmlns="http://www.w3.org/2000/svg"><g fill="none"><path d="M30 57.813a2.992 2.992 0 01-2.338-1.113L.221 22.627a1 1 0 011.558-1.254l27.44 34.069a1.041 1.041 0 001.563 0l27.439-34.069a1 1 0 011.558 1.254L32.339 56.7A2.993 2.993 0 0130 57.813z" fill="#bdc3c7"/><g fill="#ff5364"><path d="M16.44 11.92a32.332 32.332 0 00-9.33 6.45 3.002 3.002 0 01-4.22-4.27 38.168 38.168 0 019.68-6.97l3.81-1.67a38.683 38.683 0 0140.73 8.64 3.002 3.002 0 01-4.22 4.27 32.6 32.6 0 00-32.49-7.93z"/><path d="M23.69 20.89a22.218 22.218 0 00-9.44 5.55 3 3 0 11-4.22-4.26 27.955 27.955 0 019.66-6.25l4.14-1.25a28.426 28.426 0 0126.14 7.5 3 3 0 01-2.11 5.13 2.966 2.966 0 01-2.11-.87 22.331 22.331 0 00-17.55-6.36z"/><path d="M32 31.16a12.285 12.285 0 00-10.6 3.37 3.005 3.005 0 01-4.23-4.27 18.116 18.116 0 0110.03-5.03l5.1-.07a18.11 18.11 0 0110.53 5.1 3.009 3.009 0 01.02 4.24 2.973 2.973 0 01-2.14.89h-.14z"/><circle cx="30" cy="43" r="5"/></g><path d="M49 51a2 2 0 01-1.557-.743l-38-47a2 2 0 013.11-2.514l38 47A2 2 0 0149 51z" fill="#c03a2b"/></g></svg>