<svg xmlns="http://www.w3.org/2000/svg" viewBox="0 0 512 512"><circle cx="256" cy="256" r="256" fill="#2980ba"/><path d="M238.345 88.276h35.31a8.828 8.828 0 018.828 8.828v35.31h-52.966v-35.31a8.827 8.827 0 018.828-8.828z" fill="#2c3e50"/><path d="M273.655.53v87.746h-35.31V.53C244.171.177 250.086 0 256 0s11.829.177 17.655.53z" fill="#bdc3c7"/><path d="M16.119 123.586h479.762c8.902 0 16.119 7.217 16.119 16.119v232.589c0 8.902-7.217 16.119-16.119 16.119H16.119C7.217 388.414 0 381.197 0 372.295v-232.59c0-8.902 7.217-16.119 16.119-16.119z" fill="#3d324c"/><path d="M44.138 167.724h17.655a8.828 8.828 0 018.828 8.828v17.655a8.828 8.828 0 01-8.828 8.828H44.138a8.828 8.828 0 01-8.828-8.828v-17.655a8.828 8.828 0 018.828-8.828zm79.448 0h17.655a8.828 8.828 0 018.828 8.828v17.655a8.828 8.828 0 01-8.828 8.828h-17.655a8.828 8.828 0 01-8.828-8.828v-17.655a8.829 8.829 0 018.828-8.828zm79.448 0h17.655a8.828 8.828 0 018.828 8.828v17.655a8.828 8.828 0 01-8.828 8.828h-17.655a8.828 8.828 0 01-8.828-8.828v-17.655a8.829 8.829 0 018.828-8.828zm79.449 0h17.655a8.828 8.828 0 018.828 8.828v17.655a8.828 8.828 0 01-8.828 8.828h-17.655a8.828 8.828 0 01-8.828-8.828v-17.655a8.827 8.827 0 018.828-8.828zm79.448 0h17.655a8.828 8.828 0 018.828 8.828v17.655a8.828 8.828 0 01-8.828 8.828h-17.655a8.828 8.828 0 01-8.828-8.828v-17.655a8.828 8.828 0 018.828-8.828zm79.448 0h17.655a8.828 8.828 0 018.828 8.828v17.655a8.828 8.828 0 01-8.828 8.828h-17.655a8.828 8.828 0 01-8.828-8.828v-17.655a8.829 8.829 0 018.828-8.828zM44.138 238.345h17.655a8.828 8.828 0 018.828 8.828v17.655a8.828 8.828 0 01-8.828 8.828H44.138a8.828 8.828 0 01-8.828-8.828v-17.655a8.828 8.828 0 018.828-8.828zm79.448 0h17.655a8.828 8.828 0 018.828 8.828v17.655a8.828 8.828 0 01-8.828 8.828h-17.655a8.828 8.828 0 01-8.828-8.828v-17.655a8.829 8.829 0 018.828-8.828zm79.448 0h17.655a8.828 8.828 0 018.828 8.828v17.655a8.828 8.828 0 01-8.828 8.828h-17.655a8.828 8.828 0 01-8.828-8.828v-17.655a8.829 8.829 0 018.828-8.828zm79.449 0h17.655a8.828 8.828 0 018.828 8.828v17.655a8.828 8.828 0 01-8.828 8.828h-17.655a8.828 8.828 0 01-8.828-8.828v-17.655a8.827 8.827 0 018.828-8.828zm79.448 0h17.655a8.828 8.828 0 018.828 8.828v17.655a8.828 8.828 0 01-8.828 8.828h-17.655a8.828 8.828 0 01-8.828-8.828v-17.655a8.828 8.828 0 018.828-8.828zm79.448 0h17.655a8.828 8.828 0 018.828 8.828v17.655a8.828 8.828 0 01-8.828 8.828h-17.655a8.828 8.828 0 01-8.828-8.828v-17.655a8.829 8.829 0 018.828-8.828zM44.138 308.966h17.655a8.828 8.828 0 018.828 8.828v17.655a8.828 8.828 0 01-8.828 8.828H44.138a8.828 8.828 0 01-8.828-8.828v-17.655a8.828 8.828 0 018.828-8.828zm79.448 0h256a8.828 8.828 0 018.828 8.828v17.655a8.828 8.828 0 01-8.828 8.828h-256a8.828 8.828 0 01-8.828-8.828v-17.655a8.829 8.829 0 018.828-8.828zm317.793 0h17.655a8.828 8.828 0 018.828 8.828v17.655a8.828 8.828 0 01-8.828 8.828h-17.655a8.828 8.828 0 01-8.828-8.828v-17.655a8.829 8.829 0 018.828-8.828z" fill="#7d6599"/></svg>