<svg height="512" viewBox="0 0 58 38" width="512" xmlns="http://www.w3.org/2000/svg"><g fill="none"><path d="M12.27 18h-4.1a3.111 3.111 0 01-3.16-2.78A2.9 2.9 0 015.18 14a2.84 2.84 0 01.7-1.12A2.993 2.993 0 018 12H5.17a3.111 3.111 0 01-3.16-2.78A2.9 2.9 0 012.18 8a2.84 2.84 0 01.7-1.12A2.993 2.993 0 015 6H3.17A3.111 3.111 0 01.01 3.22 3 3 0 013 0h13.64c.865 0 1.688.371 2.26 1.02l3.7 4.23zM35.4 5.25l3.7-4.23A3.013 3.013 0 0141.36 0H55a3 3 0 012.99 3.22A3.111 3.111 0 0154.83 6H53c.796 0 1.558.317 2.12.88.318.313.558.697.7 1.12a2.9 2.9 0 01.17 1.22A3.111 3.111 0 0152.83 12H50c.796 0 1.558.317 2.12.88.318.313.558.697.7 1.12a2.9 2.9 0 01.17 1.22A3.111 3.111 0 0149.83 18h-4.1z" fill="#f29c1f"/><path d="M46 21c0 9.389-7.611 17-17 17s-17-7.611-17-17c-.002-1.006.089-2.01.27-3A17 17 0 0122.6 5.25a17.009 17.009 0 0112.8 0A17 17 0 0145.73 18c.181.99.272 1.994.27 3z" fill="#f3d55b"/><path d="M42 21c0 7.18-5.82 13-13 13s-13-5.82-13-13a12.67 12.67 0 01.206-2.294 13 13 0 0117.688-9.75 13 13 0 017.9 9.75A12.7 12.7 0 0142 21z" fill="#f0c419"/><path d="M30 9.038h-.078a12.1 12.1 0 00-1.846 0 1 1 0 01-.154-1.994 14.08 14.08 0 012.154 0 1 1 0 01-.076 2zm-8.346 2.236a1 1 0 01-.565-1.826c.294-.2.6-.392.912-.573s.63-.348.951-.5a1 1 0 11.866 1.8c-.276.133-.549.277-.818.431s-.53.319-.784.494a1 1 0 01-.562.174zm-4.38 5.111a1 1 0 01-.9-1.433 14.268 14.268 0 011.072-1.863 1 1 0 011.654 1.127 12.134 12.134 0 00-.925 1.602 1 1 0 01-.901.567zM16.037 23a1 1 0 01-1-.923 15.37 15.37 0 01.004-2.154 1 1 0 111.994.154 12.057 12.057 0 000 1.846 1 1 0 01-.92 1.077h-.078zm2.238 6.347a1 1 0 01-.827-.436c-.2-.294-.392-.6-.573-.912s-.348-.63-.5-.951a1 1 0 111.8-.866c.133.276.277.549.431.818s.319.53.494.784a1 1 0 01-.826 1.563zm5.11 4.379a1 1 0 01-.433-.1 14.268 14.268 0 01-1.863-1.072 1 1 0 011.127-1.654 12.199 12.199 0 001.602.925 1 1 0 01-.433 1.9zM29 35c-.362 0-.721-.014-1.077-.041a1 1 0 11.154-1.994 12.1 12.1 0 001.846 0 1 1 0 11.154 1.994c-.356.027-.715.041-1.077.041zm5.615-1.274a1 1 0 01-.433-1.9c.276-.133.549-.277.818-.431s.53-.319.784-.494a1 1 0 111.127 1.653c-.294.2-.6.392-.912.573s-.63.348-.951.5a1 1 0 01-.433.099zm5.11-4.379a1 1 0 01-.826-1.563 12.199 12.199 0 00.925-1.602 1 1 0 111.8.866 14.268 14.268 0 01-1.072 1.863 1 1 0 01-.827.436zM41.963 23h-.078a1 1 0 01-.92-1.074 12.175 12.175 0 000-1.849 1 1 0 011.994-.154 14.064 14.064 0 010 2.154 1 1 0 01-.996.923zm-1.237-6.615a1 1 0 01-.9-.567c-.133-.276-.277-.549-.431-.818s-.319-.53-.494-.784a1 1 0 111.653-1.127c.2.294.392.6.573.912s.348.63.5.951a1 1 0 01-.9 1.433zm-4.38-5.111a1 1 0 01-.562-.173 12.134 12.134 0 00-1.602-.925 1 1 0 11.866-1.8 14.268 14.268 0 011.863 1.072 1 1 0 01-.565 1.826z" fill="#f29c1f"/><path d="M30 20.1v-5.916A3 3 0 0132 17a1 1 0 002 0 5.009 5.009 0 00-4-4.9V12a1 1 0 00-2 0v.1a5 5 0 000 9.8v5.917A3 3 0 0126 25a1 1 0 00-2 0 5.009 5.009 0 004 4.9v.1a1 1 0 002 0v-.1a5 5 0 000-9.8zM26 17a3 3 0 012-2.816v5.632A3 3 0 0126 17zm4 10.816v-5.632a2.982 2.982 0 010 5.632zM55.82 8H44a1 1 0 010-2h9c.796 0 1.558.317 2.12.88.318.313.558.697.7 1.12zm-3 6H48a1 1 0 010-2h2c.796 0 1.558.317 2.12.88.318.313.558.697.7 1.12zM15 7a1 1 0 01-1 1H2.18a2.84 2.84 0 01.7-1.12A2.993 2.993 0 015 6h9a1 1 0 011 1zm-4 6a1 1 0 01-1 1H5.18a2.84 2.84 0 01.7-1.12A2.993 2.993 0 018 12h2a1 1 0 011 1z" fill="#d25627"/></g></svg>