<svg xmlns="http://www.w3.org/2000/svg" viewBox="0 0 512 512"><path fill="#af8066" d="M140.977 164.689l-88.011 38.312L0 247.139l52.966 23.04v153.512L256 511.967l203.034-88.276-.264-.088.264-.707V269.385L512 246.345l-52.966-44.138v.794l-86.775-37.694"/><path d="M459.034 203.001l-202.417 88.011-.617.265-203.034-88.276 88.011-38.312c26.218 34.692 74.681 68.061 115.906 91.277 41.048-23.04 89.159-56.232 115.377-90.659l86.774 37.694z" fill="#7f8c8d"/><path fill="#af8066" d="M459.034 422.896l-.264.707.264.088L256 511.967v-220.69l.618-.265 52.348 43.608 150.068-65.235z"/><path fill="#7f5b53" d="M256 291.277v220.69L52.966 423.691V270.179l150.068 65.236z"/><path fill="#cbb292" d="M256 291.277l-52.966 44.138-150.068-65.236L0 247.139l52.966-44.138z"/><path fill="#fdd7ad" d="M512 246.345l-52.966 23.04-150.068 65.235-52.348-43.608 202.416-88.011v-.794z"/><path d="M382.499 149.947a113.268 113.268 0 01-10.24 15.36c-26.218 34.428-74.328 67.619-115.377 90.659-41.225-23.217-89.688-56.585-115.906-91.277a120.852 120.852 0 01-9.71-14.742c-31.338-53.054-31.338-106.019 0-132.59a84.772 84.772 0 01125.617 26.571A84.785 84.785 0 01382.5 17.357c31.426 26.571 31.426 79.537-.001 132.59z" fill="#ff5364"/><g fill="#fb7b76"><path d="M176.552 61.76a8.824 8.824 0 01-8.828-8.828v-8.828a8.828 8.828 0 0117.656 0v8.828a8.824 8.824 0 01-8.828 8.828zM176.552 105.898a8.824 8.824 0 01-8.828-8.828v-8.828a8.828 8.828 0 0117.656 0v8.828a8.824 8.824 0 01-8.828 8.828zM158.897 79.415h-8.828a8.828 8.828 0 010-17.656h8.828a8.828 8.828 0 010 17.656zM203.034 79.415h-8.828a8.828 8.828 0 010-17.656h8.828a8.828 8.828 0 010 17.656z"/></g></svg>