<svg xmlns="http://www.w3.org/2000/svg" viewBox="0 0 512.007 512.007"><path d="M297.236 36.893L254.28 79.849l-24.541 24.541-42.956 42.965-36.821 36.812 24.541 24.541 30.685 30.685v-43.39a43.397 43.397 0 0112.713-30.685l24.107-24.107c6.777-6.777 17.764-6.777 24.541 0l159.544 159.544-36.821 36.812 24.55 24.55 98.182-98.182-24.55-24.541-36.821 36.812-159.541-159.545c-6.769-6.777-6.769-17.755 0-24.541l24.116-24.107A43.363 43.363 0 01345.885 55.3h43.39l-30.677-30.677L334.057.081l-36.821 36.812z" fill="#35495e"/><path d="M389.127 511.926a8.675 8.675 0 01-6.135-2.543L42.676 169.069c-13.46 3.653-23.248 14.527-25.418 28.681-.729 4.747-5.163 7.984-9.893 7.263-4.738-.729-7.992-5.155-7.263-9.893 3.567-23.214 20.871-40.517 44.075-44.075a8.619 8.619 0 017.454 2.439l340.315 340.315c13.46-3.653 23.248-14.527 25.418-28.681.729-4.738 5.198-7.975 9.893-7.255a8.663 8.663 0 017.263 9.884c-3.558 23.214-20.853 40.517-44.075 44.075-.442.07-.885.104-1.318.104" fill="#26b99a"/></svg>