<svg height="512" viewBox="0 0 56 58" width="512" xmlns="http://www.w3.org/2000/svg"><g fill="none"><path d="M37 3.02V30c0 3.31-3.36 6-7.5 6S22 33.31 22 30s3.36-6 7.5-6a8.832 8.832 0 012.5.35V6.3a1 1 0 00-1.28-.96l-15 4.45a.987.987 0 00-.72.96V35c0 3.31-3.36 6-7.5 6S0 38.31 0 35s3.36-6 7.5-6a8.9 8.9 0 012.5.35V9.24a3 3 0 012.15-2.88l21-6.22A3 3 0 0137 3.02z" fill="#26b99a"/><path d="M12.54 29.42a.977.977 0 01-.88.53 1 1 0 01-.47-.12 7.307 7.307 0 00-1.19-.5v-2.06a8.56 8.56 0 012.13.8.993.993 0 01.41 1.35z" fill="#14a085"/><path d="M4 36.02A1.015 1.015 0 013 35c0-1.419 1.848-3 4.5-3a1 1 0 010 2A2.807 2.807 0 005 35.039a.982.982 0 01-1 .981zm22-5A1.015 1.015 0 0125 30c0-1.419 1.848-3 4.5-3a1 1 0 010 2 2.807 2.807 0 00-2.5 1.039.982.982 0 01-1 .981z" fill="#81ccb8"/><path d="M34.53 24.42a.991.991 0 01-1.35.41 7.16 7.16 0 00-1.18-.49v-2.07c.737.172 1.45.437 2.12.79a1 1 0 01.41 1.36z" fill="#14a085"/><path d="M55.69 48.67l-9.3 8.78c-.783.73-1.997.73-2.78 0l-9.3-8.78a.971.971 0 01.73-1.67H37V26a2.006 2.006 0 012-2h12a2.006 2.006 0 012 2v21h1.96a.971.971 0 01.73 1.67z" fill="#f0c419"/><path d="M41 29a1 1 0 01-1 1h-3v-2h3a1 1 0 011 1zm5 1h-2a1 1 0 010-2h2a1 1 0 010 2zm-5 4a1 1 0 01-1 1h-3v-2h3a1 1 0 011 1z" fill="#f29c1f"/></g></svg>