<svg height="512" viewBox="0 0 58 58" width="512" xmlns="http://www.w3.org/2000/svg"><g fill="none"><path d="M57.71 15.85L42.15.29a1 1 0 00-1.41 0l-2.83 2.83a1.008 1.008 0 000 1.42l.7.7-8.2 8.2a1.992 1.992 0 01-2.82 0l-8.2-8.2.7-.7c.39-.393.39-1.027 0-1.42L17.26.29a1 1 0 00-1.41 0L.29 15.85a1 1 0 000 1.41l2.83 2.83c.393.39 1.027.39 1.42 0l.7-.7 13.17 13.17c.379.371.592.88.59 1.41V52h-1a1 1 0 00-1 1v4a1 1 0 001 1h22a1 1 0 001-1v-4a1 1 0 00-1-1h-1V33.97a1.966 1.966 0 01.59-1.41l13.17-13.17.7.7c.393.39 1.027.39 1.42 0l2.83-2.83a1 1 0 000-1.41z" fill="#3b97d3"/><g fill="#bdc3c7" transform="translate(-1 -1)"><path d="M21.09 5.54L6.24 20.39l-.7.7c-.393.39-1.027.39-1.42 0l-2.83-2.83a1 1 0 010-1.41L16.85 1.29a1 1 0 011.41 0l2.83 2.83c.39.393.39 1.027 0 1.42zm37.62 12.72l-2.83 2.83c-.393.39-1.027.39-1.42 0l-.7-.7L38.91 5.54a1.008 1.008 0 010-1.42l2.83-2.83a1 1 0 011.41 0l15.56 15.56a1 1 0 010 1.41z"/><rect height="6" rx="1" width="24" x="18" y="53"/></g><path d="M30 13.75V26a1 1 0 01-2 0V13.75z" fill="#2980ba"/></g></svg>