<svg height="512" viewBox="0 0 51 58" width="512" xmlns="http://www.w3.org/2000/svg"><g fill="none"><path d="M48 34c0 12.865-10.143 23.443-22.996 23.98S1.158 48.827.084 36.006C-.99 23.185 8.236 11.798 21 10.19a23.779 23.779 0 016 0 23.911 23.911 0 0112.5 5.49 23.472 23.472 0 012.82 2.82A23.906 23.906 0 0148 34z" fill="#3b97d3"/><path d="M43 34c.002 9.538-7.069 17.599-16.525 18.841S8.105 48.122 5.644 38.907C3.182 29.692 7.934 20.08 16.75 16.441c8.816-3.64 18.964-.179 23.72 8.089A19.017 19.017 0 0143 34z" fill="#ecf0f1"/><path d="M43 34a19 19 0 01-28.47 16.47 19 19 0 0125.94-25.94A18.876 18.876 0 0143 34z" fill="#fff"/><path d="M27 5v5.19a23.779 23.779 0 00-6 0V5z" fill="#2980ba"/><path d="M31 2.5A2.492 2.492 0 0128.5 5h-9a2.5 2.5 0 110-5h9A2.5 2.5 0 0131 2.5z" fill="#3b97d3"/><path d="M46 14.82l-3.68 3.68a23.472 23.472 0 00-2.82-2.82L43.18 12z" fill="#7f8284"/><path d="M50.41 16.41a1.98 1.98 0 01-2.82 0L46 14.82 43.18 12l-1.59-1.59a1.994 1.994 0 112.82-2.82l6 6a1.974 1.974 0 010 2.82z" fill="#cc4b4c"/><path d="M24 19.007c7.853.005 14.375 6.062 14.96 13.893a1.015 1.015 0 01-1 1.1H24z" fill="#ff5364"/><path d="M21.47 32.38l1.02-13.3a1.514 1.514 0 013.02 0l1.02 13.3z" fill="#bdc3c7"/><path d="M24 54C12.954 54 4 45.046 4 34s8.954-20 20-20 20 8.954 20 20c-.013 11.04-8.96 19.987-20 20zm0-38c-9.941 0-18 8.059-18 18s8.059 18 18 18 18-8.059 18-18c-.012-9.936-8.064-17.988-18-18z" fill="#bdc3c7"/><path d="M27 34a3 3 0 11-5.53-1.61v-.01a3.009 3.009 0 015.06 0c.305.486.468 1.047.47 1.62z" fill="#7f8284"/></g></svg>